<svg width="28" height="30" viewBox="0 0 28 30" fill="none" xmlns="http://www.w3.org/2000/svg">
<path d="M15.1654 0C15.8085 0.115391 16.4681 0.16979 17.0913 0.352767C21.3679 1.61053 23.9898 4.42277 24.8411 8.78949C25.0428 9.82142 24.9717 10.9061 25.0246 11.966C25.0313 12.0996 25.0246 12.2347 25.0246 12.3617C26.9423 12.7556 27.9821 14.0332 27.9937 16.0014C28.0036 17.4455 27.997 18.8911 27.9937 20.3352C27.992 21.9012 27.1869 22.8326 25.628 23.0568C25.4412 23.0831 25.3321 23.1524 25.2379 23.3057C24.5386 24.4497 23.6476 25.4041 22.4706 26.0734C21.396 26.685 20.2405 27.0064 19.0073 27.0526C18.9312 27.0559 18.8535 27.0641 18.7824 27.0707C18.2253 29.0208 16.5887 30.2061 14.7951 29.9687C12.8857 29.7148 11.4657 28.1587 11.469 26.324C11.474 24.4695 12.8461 22.9348 14.7587 22.6925C16.4085 22.4831 18.2749 23.5134 18.7643 25.5624C20.1297 25.8624 22.6805 24.5981 23.5418 23.1557C23.2938 23.1557 23.0773 23.1557 22.8607 23.1557C22.2986 23.1507 22.0391 22.8903 22.0391 22.3281C22.0391 19.361 22.0391 16.3938 22.0424 13.4249C22.0424 13.2518 22.0622 13.0721 22.1118 12.9073C22.2193 12.5578 22.4441 12.4078 22.8095 12.4045C23.0326 12.4029 23.2558 12.4045 23.4608 12.4045C23.4905 12.3617 23.5087 12.3468 23.5104 12.332C23.6459 9.94176 23.4443 7.62075 22.0209 5.57998C20.0388 2.73641 17.3029 1.31875 13.8264 1.52646C9.43565 1.78856 5.97401 5.04918 5.37062 9.37469C5.33259 9.64504 5.30449 9.91868 5.30118 10.1907C5.29127 10.9127 5.29788 11.6347 5.29788 12.4062C5.52766 12.4062 5.74753 12.4062 5.96739 12.4062C6.42531 12.4078 6.69312 12.637 6.75759 13.0936C6.77743 13.2287 6.77412 13.3656 6.77412 13.5024C6.77412 16.4399 6.77412 19.3791 6.77412 22.3166C6.77412 22.9101 6.53276 23.1573 5.94094 23.1573C5.02015 23.1573 4.09936 23.1804 3.18022 23.1408C1.7172 23.0765 0.505463 21.8732 0.470747 20.411C0.431072 18.7032 0.439337 16.9938 0.474053 15.2877C0.503809 13.8535 1.7172 12.3336 3.49101 12.4062C3.57863 12.4095 3.66459 12.4062 3.80345 12.4062C3.80345 12.2628 3.80345 12.1408 3.80345 12.0188C3.81337 10.8781 3.75055 9.73405 3.99025 8.60487C4.78706 4.88433 6.94439 2.27815 10.4358 0.776416C11.4029 0.361009 12.4229 0.131875 13.4742 0.0461564C13.5305 0.0412111 13.585 0.0164844 13.6396 0C14.1487 0 14.6579 0 15.167 0L15.1654 0ZM5.28465 13.8815C4.69614 13.8815 4.14069 13.8815 3.58359 13.8815C2.59171 13.8815 1.9536 14.5013 1.94864 15.4987C1.94038 17.0779 1.94203 18.6587 1.94864 20.2379C1.9503 20.9204 2.39168 21.5385 3.06781 21.6144C3.79519 21.6968 4.54075 21.6325 5.28631 21.6325V13.8799L5.28465 13.8815ZM23.5418 21.6655C24.1485 21.6655 24.7271 21.6935 25.3007 21.6589C26.1289 21.6078 26.5058 21.1792 26.5058 20.3533C26.5058 18.8813 26.5058 17.4076 26.5058 15.9355C26.5058 15.3915 26.3686 14.8788 26.0231 14.4651C25.8281 14.231 25.5421 13.9656 25.266 13.9244C24.7072 13.8403 24.1253 13.8997 23.5401 13.8997V21.6655H23.5418ZM17.3475 26.3652C17.3376 25.0843 16.3854 24.12 15.1373 24.1282C13.9454 24.1365 12.9618 25.1124 12.9634 26.2877C12.9634 27.4795 14.0032 28.5082 15.2018 28.5065C16.3821 28.5032 17.3558 27.5323 17.3475 26.3668V26.3652Z" fill="#DDCBAB"/>
</svg>
