<svg width="32" height="32" viewBox="0 0 32 32" fill="none" xmlns="http://www.w3.org/2000/svg">
<rect width="32" height="32" rx="4" fill="#C00000"/>
<path d="M24.9997 10.7305C24.9797 10.7305 24.9497 10.7305 24.9197 10.7305C19.6297 10.2005 14.3497 10.0005 9.11967 10.5305L7.07967 10.7305C6.65967 10.7705 6.28967 10.4705 6.24967 10.0505C6.20967 9.63046 6.50967 9.27046 6.91967 9.23046L8.95967 9.03046C14.2797 8.49046 19.6697 8.70046 25.0697 9.23046C25.4797 9.27046 25.7797 9.64046 25.7397 10.0505C25.7097 10.4405 25.3797 10.7305 24.9997 10.7305Z" fill="white"/>
<path d="M12.4998 9.72C12.4598 9.72 12.4198 9.72 12.3698 9.71C11.9698 9.64 11.6898 9.25 11.7598 8.85L11.9798 7.54C12.1398 6.58 12.3598 5.25 14.6898 5.25H17.3098C19.6498 5.25 19.8698 6.63 20.0198 7.55L20.2398 8.85C20.3098 9.26 20.0298 9.65 19.6298 9.71C19.2198 9.78 18.8298 9.5 18.7698 9.1L18.5498 7.8C18.4098 6.93 18.3798 6.76 17.3198 6.76H14.6998C13.6398 6.76 13.6198 6.9 13.4698 7.79L13.2398 9.09C13.1798 9.46 12.8598 9.72 12.4998 9.72Z" fill="white"/>
<path d="M19.2104 26.7515H12.7904C9.30039 26.7515 9.16039 24.8215 9.05039 23.2615L8.40039 13.1915C8.37039 12.7815 8.69039 12.4215 9.10039 12.3915C9.52039 12.3715 9.87039 12.6815 9.90039 13.0915L10.5504 23.1615C10.6604 24.6815 10.7004 25.2515 12.7904 25.2515H19.2104C21.3104 25.2515 21.3504 24.6815 21.4504 23.1615L22.1004 13.0915C22.1304 12.6815 22.4904 12.3715 22.9004 12.3915C23.3104 12.4215 23.6304 12.7715 23.6004 13.1915L22.9504 23.2615C22.8404 24.8215 22.7004 26.7515 19.2104 26.7515Z" fill="white"/>
<path d="M17.6601 21.25H14.3301C13.9201 21.25 13.5801 20.91 13.5801 20.5C13.5801 20.09 13.9201 19.75 14.3301 19.75H17.6601C18.0701 19.75 18.4101 20.09 18.4101 20.5C18.4101 20.91 18.0701 21.25 17.6601 21.25Z" fill="white"/>
<path d="M18.5 17.25H13.5C13.09 17.25 12.75 16.91 12.75 16.5C12.75 16.09 13.09 15.75 13.5 15.75H18.5C18.91 15.75 19.25 16.09 19.25 16.5C19.25 16.91 18.91 17.25 18.5 17.25Z" fill="white"/>
</svg>
