<svg width="53" height="30" viewBox="0 0 53 30" fill="none" xmlns="http://www.w3.org/2000/svg">
<g clip-path="url(#clip0_710_13477)">
<path d="M0.368408 5.52551C0.65807 5.10169 1.05716 4.98106 1.55924 4.9941C2.7372 5.02344 3.91838 5.00062 5.09955 5.00388C5.74646 5.00388 6.12302 5.31686 6.12302 5.83522C6.12302 6.35359 5.74646 6.66656 5.09955 6.66656C3.91838 6.66982 2.74042 6.647 1.55924 6.67634C1.05716 6.68938 0.65807 6.56876 0.368408 6.14494V5.51899L0.368408 5.52551Z" fill="#DDCBAB"/>
<path d="M39.0157 5.83938C40.7054 5.83938 42.3146 5.83612 43.9238 5.83938C48.3621 5.85242 51.97 8.84525 52.8325 13.2497C52.9452 13.8235 52.987 14.4201 52.9902 15.007C53.0063 17.5401 52.9999 20.0732 52.9967 22.6064C52.9967 24.6929 51.9314 26.0622 49.9327 26.5936C49.7975 26.6294 49.643 26.7598 49.5819 26.887C49.3695 27.3369 49.1957 27.8031 48.9897 28.3019C49.1184 28.3084 49.2633 28.3247 49.4049 28.3247C50.2771 28.3247 51.1525 28.3215 52.0247 28.3247C52.6266 28.328 52.9967 28.6572 52.9902 29.1626C52.987 29.6646 52.6169 29.9874 52.0118 29.9874C48.5359 29.9907 45.0567 29.9874 41.5808 29.9874C28.546 29.9874 15.508 29.9874 2.4732 29.9874C2.28331 29.9874 2.09342 30.007 1.90997 29.9711C1.46904 29.8896 1.2019 29.6092 1.2019 29.1495C1.2019 28.6899 1.47226 28.4127 1.9164 28.3345C2.08376 28.3052 2.25756 28.3215 2.42814 28.3215C7.00158 28.3215 11.575 28.3215 16.1485 28.3215H16.7278C16.4832 27.7542 16.2515 27.2228 16.0068 26.6555C15.2505 26.6555 14.4652 26.662 13.6767 26.6555C13.004 26.649 12.7015 26.3491 12.7015 25.6677C12.7015 18.7105 12.6854 11.7501 12.7079 4.79287C12.7176 2.15866 14.8289 0.0232564 17.4294 0.0134759C23.0489 -0.0093452 28.6683 -0.0126054 34.2845 0.0134759C36.885 0.0265166 38.9513 2.15866 39.0092 4.79939C39.0157 5.12541 39.0092 5.45142 39.0092 5.83286L39.0157 5.83938ZM37.3742 19.1441C37.3742 18.9289 37.3742 18.7724 37.3742 18.6192C37.3742 14.1104 37.3742 9.59835 37.3742 5.08955C37.3742 3.01608 36.045 1.67942 33.9916 1.67616C28.5814 1.67616 23.1679 1.67616 17.7577 1.67616C15.6689 1.67616 14.3526 3.0063 14.3493 5.11563C14.3493 9.60813 14.3493 14.1006 14.3493 18.5931C14.3493 18.7757 14.3493 18.9583 14.3493 19.1441H37.3742ZM24.1657 24.983H41.5261C42.4047 22.7661 43.6245 21.7001 45.4204 21.6805C47.6315 21.6577 48.98 22.8574 49.6527 24.9439C50.4798 24.7516 51.0849 24.2723 51.233 23.4671C51.3874 22.6162 51.3456 21.7294 51.3907 20.8752H14.3783V24.9765H16.0455C16.657 22.952 17.9476 21.7033 20.0782 21.6903C22.2378 21.6772 23.5413 22.9357 24.1624 24.983H24.1657ZM51.3392 19.1441C51.3392 17.5434 51.4035 15.9817 51.3263 14.4266C51.1589 10.9904 48.4812 7.98131 45.1211 7.62921C43.1385 7.42056 41.1205 7.54445 39.1187 7.52163C39.0929 7.52163 39.0672 7.56075 39.0414 7.58031V19.1441H51.3392ZM41.51 26.6881H24.1882C23.9468 27.2423 23.7215 27.7607 23.493 28.2856H42.2019C41.9638 27.7346 41.7385 27.2163 41.51 26.6881ZM20.1136 23.3334C18.7683 23.3269 17.6547 24.4353 17.6386 25.7948C17.6225 27.1804 18.7297 28.3247 20.0943 28.328C21.4396 28.3345 22.5532 27.226 22.5693 25.8666C22.5854 24.481 21.4782 23.3367 20.1136 23.3334ZM48.0435 25.8079C48.0435 24.4386 46.9524 23.3334 45.5974 23.3334C44.2328 23.3334 43.1192 24.4679 43.1289 25.8535C43.1385 27.213 44.2489 28.328 45.591 28.328C46.9621 28.328 48.0467 27.2163 48.0435 25.8079Z" fill="#DDCBAB"/>
<path d="M6.94049 2.50741C5.9138 2.50741 4.88389 2.50741 3.8572 2.50741C3.21351 2.50741 2.83373 2.19117 2.84017 1.66955C2.84339 1.15118 3.21673 0.844727 3.87008 0.844727C5.92668 0.844727 7.98006 0.844727 10.0367 0.844727C10.6868 0.844727 11.0601 1.16096 11.0569 1.68259C11.0537 2.20095 10.6771 2.50741 10.027 2.51067C9.00031 2.51393 7.9704 2.51067 6.94371 2.51067L6.94049 2.50741Z" fill="#DDCBAB"/>
<path d="M8.5883 9.17421C9.11935 9.17421 9.6504 9.16443 10.1814 9.17421C10.7061 9.18725 11.0536 9.52631 11.0569 9.99904C11.0569 10.4718 10.7125 10.8239 10.1911 10.8304C9.12901 10.8434 8.06691 10.8434 7.00482 10.8304C6.47699 10.8239 6.13261 10.4783 6.12939 10.0056C6.12939 9.53283 6.47055 9.18725 6.99516 9.17421C7.52621 9.15791 8.05726 9.17095 8.5883 9.17095V9.17421Z" fill="#DDCBAB"/>
<path d="M8.99061 6.67046C8.61405 6.67046 8.23748 6.68024 7.86092 6.67046C7.30091 6.65416 6.94366 6.31836 6.95332 5.82608C6.95975 5.35661 7.30735 5.01756 7.83518 5.01104C8.6237 4.998 9.41222 4.99474 10.1975 5.01104C10.7189 5.02082 11.0633 5.37944 11.0569 5.8489C11.0504 6.31836 10.7028 6.6509 10.175 6.6672C9.78235 6.68024 9.38648 6.6672 8.99382 6.6672L8.99061 6.67046Z" fill="#DDCBAB"/>
<path d="M45.1663 15.835C43.7438 15.835 42.3212 15.835 40.9019 15.835C40.1262 15.835 39.843 15.5513 39.843 14.7754C39.8398 13.2497 39.8398 11.7207 39.843 10.1949C39.843 9.47766 40.1359 9.16795 40.8375 9.17773C42.4789 9.19729 44.1364 9.10926 45.7617 9.29835C48.4041 9.60807 50.4865 12.1217 50.5283 14.8145C50.538 15.5122 50.2354 15.8317 49.537 15.835C48.0823 15.8415 46.6243 15.835 45.1696 15.835H45.1663ZM41.5069 14.1397H48.7581C48.5039 12.5748 47.2101 11.1501 45.6105 10.9643C44.2684 10.8078 42.8941 10.9317 41.5069 10.9317V14.1397Z" fill="#DDCBAB"/>
</g>
<defs>
<clipPath id="clip0_710_13477">
<rect width="52.6316" height="30" fill="white" transform="translate(0.368408)"/>
</clipPath>
</defs>
</svg>
