<svg width="25" height="25" viewBox="0 0 25 25" fill="none" xmlns="http://www.w3.org/2000/svg">
<path d="M12.5 23.2513C11.87 23.2513 11.28 23.0114 10.84 22.5614L9.32001 21.0413C9.20001 20.9213 8.88 20.7913 8.72 20.7913H6.56C5.26 20.7913 4.20999 19.7412 4.20999 18.4412V16.2813C4.20999 16.1213 4.07999 15.8014 3.95999 15.6814L2.44 14.1613C2 13.7213 1.75 13.1313 1.75 12.5013C1.75 11.8713 1.99 11.2813 2.44 10.8413L3.95999 9.32125C4.07999 9.20125 4.20999 8.88128 4.20999 8.72128V6.56137C4.20999 5.26137 5.26 4.21127 6.56 4.21127H8.72C8.88 4.21127 9.20001 4.08127 9.32001 3.96127L10.84 2.44125C11.72 1.56125 13.28 1.56125 14.16 2.44125L15.68 3.96127C15.8 4.08127 16.12 4.21127 16.28 4.21127H18.44C19.74 4.21127 20.79 5.26137 20.79 6.56137V8.72128C20.79 8.88128 20.92 9.20125 21.04 9.32125L22.56 10.8413C23 11.2813 23.25 11.8713 23.25 12.5013C23.25 13.1313 23.01 13.7213 22.56 14.1613L21.04 15.6814C20.92 15.8014 20.79 16.1213 20.79 16.2813V18.4412C20.79 19.7412 19.74 20.7913 18.44 20.7913H16.28C16.12 20.7913 15.8 20.9213 15.68 21.0413L14.16 22.5614C13.72 23.0114 13.13 23.2513 12.5 23.2513ZM5.01999 14.6213C5.41999 15.0213 5.70999 15.7213 5.70999 16.2813V18.4412C5.70999 18.9112 6.09 19.2913 6.56 19.2913H8.72C9.28 19.2913 9.98001 19.5813 10.38 19.9813L11.9 21.5013C12.22 21.8213 12.78 21.8213 13.1 21.5013L14.62 19.9813C15.02 19.5813 15.72 19.2913 16.28 19.2913H18.44C18.91 19.2913 19.29 18.9112 19.29 18.4412V16.2813C19.29 15.7213 19.58 15.0213 19.98 14.6213L21.5 13.1013C21.66 12.9413 21.75 12.7313 21.75 12.5013C21.75 12.2713 21.66 12.0613 21.5 11.9013L19.98 10.3813C19.58 9.98131 19.29 9.28128 19.29 8.72128V6.56137C19.29 6.09137 18.91 5.71127 18.44 5.71127H16.28C15.72 5.71127 15.02 5.42133 14.62 5.02133L13.1 3.50131C12.78 3.18131 12.22 3.18131 11.9 3.50131L10.38 5.02133C9.98001 5.42133 9.28 5.71127 8.72 5.71127H6.56C6.09 5.71127 5.70999 6.09137 5.70999 6.56137V8.72128C5.70999 9.28128 5.41999 9.98131 5.01999 10.3813L3.5 11.9013C3.34 12.0613 3.25 12.2713 3.25 12.5013C3.25 12.7313 3.34 12.9413 3.5 13.1013L5.01999 14.6213Z" fill="#3D3A36"/>
<path d="M15.5002 16.5C14.9402 16.5 14.4902 16.05 14.4902 15.5C14.4902 14.95 14.9402 14.5 15.4902 14.5C16.0402 14.5 16.4902 14.95 16.4902 15.5C16.4902 16.05 16.0502 16.5 15.5002 16.5Z" fill="#3D3A36"/>
<path d="M9.51001 10.5C8.95001 10.5 8.5 10.05 8.5 9.5C8.5 8.95 8.95 8.5 9.5 8.5C10.05 8.5 10.5 8.95 10.5 9.5C10.5 10.05 10.06 10.5 9.51001 10.5Z" fill="#3D3A36"/>
<path d="M9.49945 16.2514C9.30945 16.2514 9.11945 16.1815 8.96945 16.0315C8.67945 15.7415 8.67945 15.2614 8.96945 14.9714L14.9695 8.97141C15.2595 8.68141 15.7395 8.68141 16.0295 8.97141C16.3195 9.26141 16.3195 9.74146 16.0295 10.0315L10.0295 16.0315C9.87945 16.1815 9.68945 16.2514 9.49945 16.2514Z" fill="#3D3A36"/>
</svg>
