<svg width="34" height="30" viewBox="0 0 34 30" fill="none" xmlns="http://www.w3.org/2000/svg">
<path d="M34.0002 15.0429C33.9521 17.4555 34.043 19.8307 33.829 22.1844C33.492 25.9023 30.3679 29.219 26.7195 29.984C26.6125 30.0054 26.4895 30.0054 26.3772 29.984C22.7127 29.1976 19.6903 25.8863 19.2409 22.1791C19.2249 22.0239 19.1928 21.8742 19.1607 21.6869H18.6792C13.8219 21.6869 8.96453 21.6869 4.10718 21.6869C2.35255 21.6869 1.03122 20.6545 0.688852 19.0229C0.630008 18.734 0.624658 18.4291 0.624658 18.1295C0.624658 13.2829 0.656755 8.43622 0.60861 3.58957C0.587212 1.49257 2.19206 -0.0106423 4.21952 5.67491e-05C11.864 0.0375032 19.5084 0.0161052 27.1528 0.0161052C28.8433 0.0161052 30.1593 1.01111 30.5284 2.58387C30.6086 2.92088 30.63 3.2793 30.63 3.62702C30.6354 7.04 30.6407 10.453 30.63 13.866C30.63 14.1923 30.7263 14.3153 31.0366 14.3795C32.0048 14.5774 32.9624 14.8075 34.0055 15.0429H34.0002ZM2.283 10.0357V10.453C2.283 13.0207 2.283 15.5832 2.283 18.1509C2.283 19.3706 2.94634 20.0286 4.16603 20.0286C9.00733 20.0286 13.854 20.0286 18.6953 20.0286H19.1393V15.0536C19.2623 15.0161 19.3586 14.984 19.4603 14.9626C21.6803 14.4598 23.895 13.9516 26.1204 13.4647C26.3986 13.4059 26.7142 13.4166 26.9977 13.4647C27.6343 13.5771 28.2655 13.7376 28.9182 13.8874V10.0357H2.283ZM20.8083 16.3695C20.8083 17.8995 20.803 19.3973 20.8083 20.8899C20.8297 24.2279 22.9802 27.1755 26.1578 28.1866C26.3986 28.2615 26.7035 28.2615 26.9389 28.1866C30.1218 27.1702 32.2616 24.2386 32.2884 20.8899C32.2991 19.6916 32.2884 18.4933 32.2884 17.295C32.2884 16.9847 32.2884 16.6744 32.2884 16.3642C30.4107 15.9362 28.5758 15.519 26.7356 15.107C26.6125 15.0803 26.4734 15.0803 26.3504 15.107C24.5102 15.519 22.6753 15.9416 20.803 16.3695H20.8083ZM2.28835 4.72901H28.9182C28.9182 4.13522 28.977 3.55747 28.8968 3.00113C28.8486 2.68551 28.6132 2.36454 28.3832 2.11311C28.0623 1.76004 27.6022 1.67445 27.1314 1.67445C19.4496 1.67445 11.773 1.67445 4.09114 1.67445C3.936 1.67445 3.78086 1.6905 3.62573 1.71725C2.89285 1.85633 2.3365 2.46083 2.2937 3.19906C2.26696 3.69121 2.28835 4.18871 2.28835 4.71832V4.72901ZM28.9342 6.4462H2.3151V8.33458H28.9342V6.4462Z" fill="#DDCBAB"/>
</svg>
