<svg width="24" height="24" viewBox="0 0 24 24" fill="none" xmlns="http://www.w3.org/2000/svg">
<path d="M5.0307 8.46927C4.96101 8.39959 4.87829 8.34432 4.78724 8.3066C4.6962 8.26889 4.59862 8.24948 4.50007 8.24948C4.40152 8.24948 4.30394 8.26889 4.2129 8.3066C4.12185 8.34432 4.03913 8.39959 3.96944 8.46927C3.89976 8.53896 3.84449 8.62168 3.80678 8.71273C3.76906 8.80377 3.74965 8.90135 3.74965 8.9999C3.74965 9.09844 3.76906 9.19603 3.80678 9.28707C3.84449 9.37811 3.89976 9.46084 3.96944 9.53052L11.4694 17.0305C11.5391 17.1003 11.6218 17.1556 11.7129 17.1933C11.8039 17.2311 11.9015 17.2505 12.0001 17.2505C12.0986 17.2505 12.1962 17.2311 12.2873 17.1933C12.3783 17.1556 12.461 17.1003 12.5307 17.0305L20.0307 9.53052C20.1714 9.38979 20.2505 9.19892 20.2505 8.9999C20.2505 8.80088 20.1714 8.61 20.0307 8.46927C19.89 8.32854 19.6991 8.24948 19.5001 8.24948C19.301 8.24948 19.1102 8.32854 18.9694 8.46927L12.0001 15.4396L5.0307 8.46927Z" fill="#BBBBBB"/>
</svg>
