<svg width="24" height="24" viewBox="0 0 24 24" fill="none" xmlns="http://www.w3.org/2000/svg">
<path d="M18.9693 8.46927C19.039 8.39959 19.1217 8.34431 19.2128 8.3066C19.3038 8.26889 19.4014 8.24948 19.4999 8.24948C19.5985 8.24948 19.6961 8.26889 19.7871 8.3066C19.8781 8.34431 19.9609 8.39959 20.0306 8.46927C20.1002 8.53895 20.1555 8.62168 20.1932 8.71272C20.2309 8.80377 20.2503 8.90135 20.2503 8.9999C20.2503 9.09844 20.2309 9.19603 20.1932 9.28707C20.1555 9.37811 20.1002 9.46084 20.0306 9.53052L12.5306 17.0305C12.4609 17.1003 12.3782 17.1556 12.2871 17.1933C12.1961 17.2311 12.0985 17.2505 11.9999 17.2505C11.9014 17.2505 11.8038 17.2311 11.7127 17.1933C11.6217 17.1556 11.539 17.1003 11.4693 17.0305L3.9693 9.53052C3.82857 9.38979 3.74951 9.19892 3.74951 8.9999C3.74951 8.80088 3.82857 8.61 3.9693 8.46927C4.11003 8.32854 4.30091 8.24948 4.49993 8.24948C4.69895 8.24948 4.88982 8.32854 5.03055 8.46927L11.9999 15.4396L18.9693 8.46927Z" fill="white"/>
</svg>
